<mxfile host="Electron" agent="Mozilla/5.0 (X11; Linux x86_64) AppleWebKit/537.36 (KHTML, like Gecko) draw.io/24.7.5 Chrome/126.0.6478.183 Electron/31.3.0 Safari/537.36" version="24.7.5">
  <diagram name="Страница — 1" id="-7iinr9FQo9lgZhA_vXO">
    <mxGraphModel dx="697" dy="696" grid="1" gridSize="10" guides="1" tooltips="1" connect="1" arrows="1" fold="1" page="1" pageScale="1" pageWidth="827" pageHeight="1169" math="0" shadow="0">
      <root>
        <mxCell id="0" />
        <mxCell id="1" parent="0" />
        <mxCell id="To64jtl__Oc4jpR3MfXC-2" value="&lt;font color=&quot;#545454&quot;&gt;{&lt;/font&gt;&lt;div&gt;&amp;nbsp; &amp;nbsp; &lt;font color=&quot;#007fff&quot;&gt;&quot;label&quot;&lt;/font&gt;&lt;font color=&quot;#545454&quot;&gt;:&lt;/font&gt; &lt;font color=&quot;#c96500&quot;&gt;&quot;Build&quot;&lt;/font&gt;&lt;font color=&quot;#545454&quot;&gt;,&lt;/font&gt;&lt;/div&gt;&lt;div&gt;&amp;nbsp; &amp;nbsp; &lt;font color=&quot;#007fff&quot;&gt;&quot;type&quot;&lt;/font&gt;&lt;font color=&quot;#545454&quot;&gt;:&lt;/font&gt; &lt;font color=&quot;#c96500&quot;&gt;&quot;shell&quot;&lt;/font&gt;&lt;font color=&quot;#545454&quot;&gt;,&lt;/font&gt;&lt;/div&gt;&lt;div&gt;&amp;nbsp; &amp;nbsp; &lt;font color=&quot;#007fff&quot;&gt;&quot;command&quot;&lt;/font&gt;&lt;font color=&quot;#545454&quot;&gt;:&lt;/font&gt; &lt;font color=&quot;#c96500&quot;&gt;&quot;${workspaceFolder}/build.sh&quot;&lt;/font&gt;&lt;font color=&quot;#545454&quot;&gt;,&lt;/font&gt;&lt;/div&gt;&lt;div&gt;&amp;nbsp; &amp;nbsp; &lt;font color=&quot;#00994d&quot;&gt;// Ctrl + Shift + B&lt;/font&gt;&lt;/div&gt;&lt;div&gt;&lt;font color=&quot;#007fff&quot;&gt;&amp;nbsp; &amp;nbsp; &quot;group&quot;: &lt;/font&gt;&lt;font color=&quot;#545454&quot;&gt;{&lt;/font&gt;&lt;/div&gt;&lt;div&gt;&lt;font color=&quot;#007fff&quot;&gt;&amp;nbsp; &amp;nbsp; &amp;nbsp; &amp;nbsp; &quot;kind&quot;&lt;/font&gt;&lt;font color=&quot;#545454&quot;&gt;:&lt;/font&gt;&lt;font color=&quot;#007fff&quot;&gt; &lt;/font&gt;&lt;font color=&quot;#c96500&quot;&gt;&quot;build&quot;&lt;/font&gt;&lt;font color=&quot;#545454&quot;&gt;,&lt;/font&gt;&lt;/div&gt;&lt;div&gt;&lt;font color=&quot;#007fff&quot;&gt;&amp;nbsp; &amp;nbsp; &amp;nbsp; &amp;nbsp; &quot;isDefault&quot;&lt;/font&gt;&lt;font color=&quot;#545454&quot;&gt;:&lt;/font&gt;&lt;font color=&quot;#007fff&quot;&gt; true&lt;/font&gt;&lt;/div&gt;&lt;div&gt;&lt;font color=&quot;#007fff&quot;&gt;&amp;nbsp; &amp;nbsp; &lt;/font&gt;&lt;font color=&quot;#545454&quot;&gt;}&lt;/font&gt;&lt;br&gt;&lt;div&gt;&lt;div&gt;&lt;font color=&quot;#545454&quot;&gt;}&lt;/font&gt;&lt;/div&gt;&lt;/div&gt;&lt;/div&gt;" style="text;html=1;align=left;verticalAlign=top;whiteSpace=wrap;rounded=0;fontFamily=Courier New;" parent="1" vertex="1">
          <mxGeometry x="360" y="290" width="330" height="180" as="geometry" />
        </mxCell>
        <mxCell id="To64jtl__Oc4jpR3MfXC-5" value="tasks.json" style="text;html=1;align=left;verticalAlign=middle;whiteSpace=wrap;rounded=0;" parent="1" vertex="1">
          <mxGeometry x="360" y="260" width="70" height="30" as="geometry" />
        </mxCell>
        <mxCell id="To64jtl__Oc4jpR3MfXC-6" value="" style="endArrow=none;html=1;rounded=0;" parent="1" edge="1">
          <mxGeometry width="50" height="50" relative="1" as="geometry">
            <mxPoint x="350" y="470" as="sourcePoint" />
            <mxPoint x="350" y="260" as="targetPoint" />
          </mxGeometry>
        </mxCell>
        <mxCell id="W0IxdtLmUjodAu66150V-1" value="setup.sh - &lt;font face=&quot;Helvetica&quot;&gt;настройка окружения&lt;/font&gt;&lt;div&gt;build.sh - &lt;font face=&quot;Helvetica&quot;&gt;сборка&lt;/font&gt;&lt;/div&gt;&lt;div&gt;run.sh - &lt;font face=&quot;Helvetica&quot;&gt;запуск БД и psql&lt;/font&gt;&lt;/div&gt;&lt;div&gt;test.sh - &lt;font face=&quot;Helvetica&quot;&gt;запуск тестов&lt;/font&gt;&lt;/div&gt;" style="text;html=1;align=left;verticalAlign=top;whiteSpace=wrap;rounded=0;fontFamily=Courier New;" vertex="1" parent="1">
          <mxGeometry x="120" y="260" width="230" height="130" as="geometry" />
        </mxCell>
      </root>
    </mxGraphModel>
  </diagram>
</mxfile>
